<svg xmlns="http://www.w3.org/2000/svg" viewBox="0 0 120 120">
  <g stroke="#1F2937" stroke-width="5" stroke-linecap="round" stroke-linejoin="round">
    <path d="M34 36 C20 54 22 82 40 96" fill="none"></path>
    <path d="M86 36 C100 54 98 82 80 96" fill="none"></path>
    <ellipse cx="28" cy="48" rx="9" ry="5" fill="#0B9944" transform="rotate(-55 28 48)"></ellipse>
    <ellipse cx="26" cy="68" rx="9" ry="5" fill="#0B9944" transform="rotate(-80 26 68)"></ellipse>
    <ellipse cx="33" cy="87" rx="9" ry="5" fill="#0B9944" transform="rotate(-110 33 87)"></ellipse>
    <ellipse cx="92" cy="48" rx="9" ry="5" fill="#0B9944" transform="rotate(55 92 48)"></ellipse>
    <ellipse cx="94" cy="68" rx="9" ry="5" fill="#0B9944" transform="rotate(80 94 68)"></ellipse>
    <ellipse cx="87" cy="87" rx="9" ry="5" fill="#0B9944" transform="rotate(110 87 87)"></ellipse>
    <polygon points="60,30 67.5,47 86,47 71.5,58.5 76.5,77 60,66 43.5,77 48.5,58.5 34,47 52.5,47" fill="#FFBF54"></polygon>
  </g>
</svg>